<mxfile host="Electron" agent="Mozilla/5.0 (X11; Linux x86_64) AppleWebKit/537.36 (KHTML, like Gecko) draw.io/28.2.5 Chrome/138.0.7204.251 Electron/37.6.1 Safari/537.36" version="28.2.5">
  <diagram name="第 1 页" id="A2wYnKDMZFF023bxGnZ8">
    <mxGraphModel dx="599" dy="788" grid="1" gridSize="10" guides="1" tooltips="1" connect="1" arrows="1" fold="1" page="1" pageScale="1" pageWidth="827" pageHeight="1169" math="0" shadow="0">
      <root>
        <mxCell id="0" />
        <mxCell id="1" parent="0" />
        <mxCell id="lc5mf7nCTQjh2SExQ85K-13" value="" style="rounded=0;whiteSpace=wrap;html=1;" parent="1" vertex="1">
          <mxGeometry x="860" y="150" width="1270" height="410" as="geometry" />
        </mxCell>
        <mxCell id="1i7iyDztXm2SfSE6uJK3-13" value="&lt;div&gt;ReactiveWebServerApplicationContextFactory&lt;/div&gt;" style="html=1;whiteSpace=wrap;fontSize=20;verticalAlign=middle;align=center;fillColor=#ffe6cc;strokeColor=#d79b00;" parent="1" vertex="1">
          <mxGeometry x="880" y="430" width="420" height="51" as="geometry" />
        </mxCell>
        <mxCell id="mEVcy1A5f8fxIJjsYzMS-3" value="DefaultApplicationContextFactory" style="html=1;whiteSpace=wrap;fontSize=20;fontStyle=0;fillColor=#ffe6cc;strokeColor=#d79b00;" parent="1" vertex="1">
          <mxGeometry x="1330" y="430" width="310" height="50" as="geometry" />
        </mxCell>
        <mxCell id="mEVcy1A5f8fxIJjsYzMS-14" value="«interface»&lt;br&gt;ApplicationContextFactory" style="html=1;whiteSpace=wrap;fontSize=20;fontStyle=0;fillColor=#ffe6cc;strokeColor=#d79b00;" parent="1" vertex="1">
          <mxGeometry x="1370" y="210" width="240" height="50" as="geometry" />
        </mxCell>
        <mxCell id="mEVcy1A5f8fxIJjsYzMS-32" value="ServletWebServerApplicationContextFactory" style="html=1;whiteSpace=wrap;fontSize=20;fontStyle=0;fillColor=#ffe6cc;strokeColor=#d79b00;" parent="1" vertex="1">
          <mxGeometry x="1670" y="431" width="430" height="50" as="geometry" />
        </mxCell>
        <mxCell id="mEVcy1A5f8fxIJjsYzMS-37" value="springboot&lt;div&gt;&lt;br&gt;&lt;/div&gt;" style="shape=module;align=left;spacingLeft=20;align=center;verticalAlign=top;whiteSpace=wrap;html=1;fontSize=20;fillColor=#ffe6cc;strokeColor=#d79b00;" parent="1" vertex="1">
          <mxGeometry x="1850" y="220" width="160" height="50" as="geometry" />
        </mxCell>
        <mxCell id="88rl70MJOGu24T178BUy-2" value="" style="endArrow=block;dashed=1;endFill=0;endSize=12;html=1;rounded=0;exitX=0.5;exitY=0;exitDx=0;exitDy=0;entryX=0.472;entryY=1.001;entryDx=0;entryDy=0;entryPerimeter=0;" parent="1" source="1i7iyDztXm2SfSE6uJK3-13" target="mEVcy1A5f8fxIJjsYzMS-14" edge="1">
          <mxGeometry width="160" relative="1" as="geometry">
            <mxPoint x="1130" y="390" as="sourcePoint" />
            <mxPoint x="1290" y="390" as="targetPoint" />
          </mxGeometry>
        </mxCell>
        <mxCell id="88rl70MJOGu24T178BUy-3" value="" style="endArrow=block;dashed=1;endFill=0;endSize=12;html=1;rounded=0;exitX=0.5;exitY=0;exitDx=0;exitDy=0;entryX=0.473;entryY=1.019;entryDx=0;entryDy=0;entryPerimeter=0;" parent="1" source="mEVcy1A5f8fxIJjsYzMS-3" target="mEVcy1A5f8fxIJjsYzMS-14" edge="1">
          <mxGeometry width="160" relative="1" as="geometry">
            <mxPoint x="1450" y="340" as="sourcePoint" />
            <mxPoint x="1610" y="340" as="targetPoint" />
          </mxGeometry>
        </mxCell>
        <mxCell id="88rl70MJOGu24T178BUy-4" value="" style="endArrow=block;dashed=1;endFill=0;endSize=12;html=1;rounded=0;exitX=0.5;exitY=0;exitDx=0;exitDy=0;entryX=0.478;entryY=1;entryDx=0;entryDy=0;entryPerimeter=0;" parent="1" source="mEVcy1A5f8fxIJjsYzMS-32" target="mEVcy1A5f8fxIJjsYzMS-14" edge="1">
          <mxGeometry width="160" relative="1" as="geometry">
            <mxPoint x="1710" y="320" as="sourcePoint" />
            <mxPoint x="1870" y="320" as="targetPoint" />
          </mxGeometry>
        </mxCell>
      </root>
    </mxGraphModel>
  </diagram>
</mxfile>
